<mxfile host="drawio-plugin" modified="2024-06-13T16:16:25.197Z" agent="5.0 (X11; Linux x86_64) AppleWebKit/537.36 (KHTML, like Gecko) Chrome/111.0.0.0 Safari/537.36" etag="uM5M6OAX8_U4C67fDOhL" version="20.5.3" type="embed"><diagram id="ERxrzM34JgP0kjhDalQf" name="Page-1"><mxGraphModel dx="1129" dy="551" grid="1" gridSize="10" guides="1" tooltips="1" connect="1" arrows="1" fold="1" page="0" pageScale="1" pageWidth="827" pageHeight="1169" background="#EEEEEE" math="0" shadow="0"><root><mxCell id="0"/><mxCell id="1" parent="0"/><mxCell id="461" value="&lt;b&gt;alt&lt;/b&gt;" style="shape=umlFrame;whiteSpace=wrap;html=1;labelBackgroundColor=none;strokeColor=#000000;strokeWidth=2;fontColor=#0D0D0D;fillColor=none;width=100;height=20;" parent="1" vertex="1"><mxGeometry x="-200" y="660" width="1110" height="250" as="geometry"/></mxCell><mxCell id="379" value="&lt;b&gt;alt&lt;/b&gt;" style="shape=umlFrame;whiteSpace=wrap;html=1;labelBackgroundColor=none;strokeColor=#000000;strokeWidth=2;fontColor=#0D0D0D;fillColor=none;width=100;height=20;" parent="1" vertex="1"><mxGeometry x="-200" y="390" width="820" height="190" as="geometry"/></mxCell><mxCell id="498" value="" style="edgeStyle=orthogonalEdgeStyle;rounded=0;orthogonalLoop=1;jettySize=auto;html=1;" parent="1" source="224" target="237" edge="1"><mxGeometry relative="1" as="geometry"/></mxCell><mxCell id="499" value="" style="edgeStyle=orthogonalEdgeStyle;rounded=0;orthogonalLoop=1;jettySize=auto;html=1;" parent="1" source="224" target="237" edge="1"><mxGeometry relative="1" as="geometry"/></mxCell><mxCell id="224" value="Cliente" style="shape=umlActor;verticalLabelPosition=bottom;verticalAlign=top;html=1;outlineConnect=0;fillColor=#2A2A2A;strokeColor=#000000;fontColor=#1C1C1C;" parent="1" vertex="1"><mxGeometry x="-80" y="50" width="30" height="60" as="geometry"/></mxCell><mxCell id="225" value="" style="endArrow=none;html=1;rounded=0;fontColor=#0D0D0D;strokeColor=#191919;strokeWidth=2;" parent="1" edge="1"><mxGeometry width="50" height="50" relative="1" as="geometry"><mxPoint x="-65.26923076923072" y="170" as="sourcePoint"/><mxPoint x="-65.5" y="140" as="targetPoint"/></mxGeometry></mxCell><mxCell id="228" value="" style="swimlane;startSize=0;strokeColor=#000000;fontColor=#0D0D0D;fillColor=#2A2A2A;strokeWidth=2;" parent="1" vertex="1"><mxGeometry x="30" y="60" width="100" height="60" as="geometry"/></mxCell><mxCell id="230" value="CustomizeAuto" style="text;html=1;align=center;verticalAlign=middle;resizable=0;points=[];autosize=1;strokeColor=none;fillColor=none;fontColor=#0D0D0D;" parent="228" vertex="1"><mxGeometry y="15" width="100" height="30" as="geometry"/></mxCell><mxCell id="231" value="" style="swimlane;startSize=0;strokeColor=#000000;fontColor=#0D0D0D;fillColor=#2A2A2A;strokeWidth=2;" parent="1" vertex="1"><mxGeometry x="180" y="60" width="100" height="60" as="geometry"/></mxCell><mxCell id="232" value="AddUsata" style="text;html=1;align=center;verticalAlign=middle;resizable=0;points=[];autosize=1;strokeColor=none;fillColor=none;fontColor=#0D0D0D;" parent="231" vertex="1"><mxGeometry x="10" y="15" width="80" height="30" as="geometry"/></mxCell><mxCell id="234" value="" style="endArrow=classic;html=1;rounded=0;strokeColor=#191919;strokeWidth=2;fontColor=#0D0D0D;entryX=-0.092;entryY=0.25;entryDx=0;entryDy=0;entryPerimeter=0;" parent="1" target="266" edge="1"><mxGeometry width="50" height="50" relative="1" as="geometry"><mxPoint x="-60" y="190" as="sourcePoint"/><mxPoint x="80" y="190" as="targetPoint"/></mxGeometry></mxCell><mxCell id="237" value="handleAutoClicked" style="text;html=1;strokeColor=none;fillColor=none;align=center;verticalAlign=middle;whiteSpace=wrap;rounded=0;labelBackgroundColor=none;strokeWidth=2;fontColor=#0D0D0D;" parent="1" vertex="1"><mxGeometry x="-30" y="190" width="60" height="30" as="geometry"/></mxCell><mxCell id="299" style="edgeStyle=orthogonalEdgeStyle;rounded=0;orthogonalLoop=1;jettySize=auto;html=1;exitX=1;exitY=0.25;exitDx=0;exitDy=0;strokeColor=#0D0D0D;strokeWidth=2;endArrow=classic;endFill=1;entryX=0;entryY=0.25;entryDx=0;entryDy=0;" parent="1" source="266" target="298" edge="1"><mxGeometry relative="1" as="geometry"/></mxCell><mxCell id="266" value="" style="swimlane;startSize=0;labelBackgroundColor=none;strokeColor=#000000;strokeWidth=2;fontColor=#0D0D0D;fillColor=#2A2A2A;" parent="1" vertex="1"><mxGeometry x="75" y="170" width="10" height="80" as="geometry"/></mxCell><mxCell id="267" value="" style="endArrow=none;html=1;rounded=0;fontColor=#0D0D0D;strokeColor=#191919;strokeWidth=2;entryX=0.5;entryY=1;entryDx=0;entryDy=0;" parent="1" target="228" edge="1"><mxGeometry width="50" height="50" relative="1" as="geometry"><mxPoint x="80" y="170" as="sourcePoint"/><mxPoint x="79.75999999999999" y="150" as="targetPoint"/></mxGeometry></mxCell><mxCell id="269" value="" style="endArrow=none;html=1;rounded=0;fontColor=#0D0D0D;strokeColor=#191919;strokeWidth=2;dashed=1;entryX=0.5;entryY=1;entryDx=0;entryDy=0;exitX=0.5;exitY=0;exitDx=0;exitDy=0;" parent="1" source="456" target="231" edge="1"><mxGeometry width="50" height="50" relative="1" as="geometry"><mxPoint x="230" y="560" as="sourcePoint"/><mxPoint x="229.69" y="150.00000000000006" as="targetPoint"/></mxGeometry></mxCell><mxCell id="271" value="" style="endArrow=none;dashed=1;html=1;rounded=0;entryX=0.5;entryY=1;entryDx=0;entryDy=0;strokeWidth=2;strokeColor=#000000;" parent="1" target="399" edge="1"><mxGeometry width="50" height="50" relative="1" as="geometry"><mxPoint x="80" y="400" as="sourcePoint"/><mxPoint x="120" y="290" as="targetPoint"/><Array as="points"><mxPoint x="80" y="400"/></Array></mxGeometry></mxCell><mxCell id="274" value="" style="endArrow=none;dashed=1;html=1;rounded=0;exitX=0.622;exitY=0;exitDx=0;exitDy=0;exitPerimeter=0;strokeWidth=2;strokeColor=#000000;entryX=0.5;entryY=1;entryDx=0;entryDy=0;" parent="1" target="403" edge="1"><mxGeometry width="50" height="50" relative="1" as="geometry"><mxPoint x="-65.4799999999999" y="350" as="sourcePoint"/><mxPoint x="-65" y="170" as="targetPoint"/></mxGeometry></mxCell><mxCell id="275" value="" style="endArrow=none;dashed=1;html=1;rounded=0;entryX=0.5;entryY=1;entryDx=0;entryDy=0;strokeWidth=2;strokeColor=#000000;" parent="1" target="403" edge="1"><mxGeometry width="50" height="50" relative="1" as="geometry"><mxPoint x="-65.28" y="495" as="sourcePoint"/><mxPoint x="-65.48000000000005" y="355" as="targetPoint"/></mxGeometry></mxCell><mxCell id="288" value="" style="swimlane;startSize=0;strokeColor=#000000;fontColor=#0D0D0D;fillColor=#2A2A2A;strokeWidth=2;" parent="1" vertex="1"><mxGeometry x="330" y="60" width="100" height="60" as="geometry"/></mxCell><mxCell id="289" value="Login" style="text;html=1;align=center;verticalAlign=middle;resizable=0;points=[];autosize=1;strokeColor=none;fillColor=none;fontColor=#0D0D0D;" parent="288" vertex="1"><mxGeometry x="25" y="15" width="50" height="30" as="geometry"/></mxCell><mxCell id="297" style="edgeStyle=orthogonalEdgeStyle;rounded=0;orthogonalLoop=1;jettySize=auto;html=1;strokeColor=#0D0D0D;endArrow=none;endFill=0;dashed=1;strokeWidth=2;startArrow=none;" parent="1" edge="1"><mxGeometry relative="1" as="geometry"><mxPoint x="530" y="1000" as="targetPoint"/><mxPoint x="530" y="390" as="sourcePoint"/></mxGeometry></mxCell><mxCell id="290" value="" style="swimlane;startSize=0;strokeColor=#000000;fontColor=#0D0D0D;fillColor=#2A2A2A;strokeWidth=2;" parent="1" vertex="1"><mxGeometry x="480" y="60" width="100" height="60" as="geometry"/></mxCell><mxCell id="291" value="CatalogoModel" style="text;html=1;align=center;verticalAlign=middle;resizable=0;points=[];autosize=1;strokeColor=none;fillColor=none;fontColor=#0D0D0D;" parent="290" vertex="1"><mxGeometry y="15" width="100" height="30" as="geometry"/></mxCell><mxCell id="298" value="" style="swimlane;startSize=0;labelBackgroundColor=none;strokeColor=#000000;strokeWidth=2;fontColor=#0D0D0D;fillColor=#2A2A2A;" parent="1" vertex="1"><mxGeometry x="525" y="170" width="10" height="80" as="geometry"/></mxCell><mxCell id="302" value="" style="edgeStyle=orthogonalEdgeStyle;rounded=0;orthogonalLoop=1;jettySize=auto;html=1;strokeColor=#0D0D0D;endArrow=none;endFill=0;dashed=1;strokeWidth=2;" parent="1" source="290" target="298" edge="1"><mxGeometry relative="1" as="geometry"><mxPoint x="530" y="150" as="sourcePoint"/><mxPoint x="530" y="480" as="targetPoint"/></mxGeometry></mxCell><mxCell id="311" style="edgeStyle=orthogonalEdgeStyle;rounded=0;orthogonalLoop=1;jettySize=auto;html=1;exitX=1;exitY=0.25;exitDx=0;exitDy=0;dashed=1;strokeColor=#0D0D0D;strokeWidth=2;endArrow=classic;endFill=1;" parent="1" edge="1"><mxGeometry relative="1" as="geometry"><mxPoint x="525" y="220" as="sourcePoint"/><mxPoint x="85" y="220" as="targetPoint"/></mxGeometry></mxCell><mxCell id="320" value="getSelectedAuto" style="text;html=1;strokeColor=none;fillColor=none;align=center;verticalAlign=middle;whiteSpace=wrap;rounded=0;labelBackgroundColor=none;strokeWidth=2;fontColor=#0D0D0D;" parent="1" vertex="1"><mxGeometry x="275" y="160" width="60" height="30" as="geometry"/></mxCell><mxCell id="321" value="initialize" style="text;html=1;strokeColor=none;fillColor=none;align=center;verticalAlign=middle;whiteSpace=wrap;rounded=0;labelBackgroundColor=none;strokeWidth=2;fontColor=#0D0D0D;" parent="1" vertex="1"><mxGeometry x="250" y="230" width="120" height="20" as="geometry"/></mxCell><mxCell id="324" value="" style="endArrow=classic;html=1;rounded=0;strokeColor=#0D0D0D;strokeWidth=2;" parent="1" edge="1"><mxGeometry width="50" height="50" relative="1" as="geometry"><mxPoint x="-60" y="330" as="sourcePoint"/><mxPoint x="80" y="330" as="targetPoint"/></mxGeometry></mxCell><mxCell id="325" value="compilaForm" style="text;html=1;strokeColor=none;fillColor=none;align=center;verticalAlign=middle;whiteSpace=wrap;rounded=0;labelBackgroundColor=none;strokeWidth=2;fontColor=#0D0D0D;" parent="1" vertex="1"><mxGeometry x="-30" y="294" width="60" height="30" as="geometry"/></mxCell><mxCell id="357" value="" style="endArrow=none;html=1;rounded=0;fontColor=#0D0D0D;strokeColor=#191919;strokeWidth=2;dashed=1;entryX=0.5;entryY=1;entryDx=0;entryDy=0;startArrow=none;" parent="1" source="439" target="288" edge="1"><mxGeometry width="50" height="50" relative="1" as="geometry"><mxPoint x="380" y="650" as="sourcePoint"/><mxPoint x="379.5200000000001" y="150" as="targetPoint"/></mxGeometry></mxCell><mxCell id="376" value="" style="endArrow=classic;html=1;rounded=0;strokeColor=#191919;strokeWidth=2;fontColor=#0D0D0D;" parent="1" edge="1"><mxGeometry width="50" height="50" relative="1" as="geometry"><mxPoint x="90" y="330" as="sourcePoint"/><mxPoint x="85" y="380" as="targetPoint"/><Array as="points"><mxPoint x="130" y="330"/><mxPoint x="130" y="380"/></Array></mxGeometry></mxCell><mxCell id="377" value="validation" style="text;html=1;strokeColor=none;fillColor=none;align=center;verticalAlign=middle;whiteSpace=wrap;rounded=0;labelBackgroundColor=none;strokeWidth=2;fontColor=#0D0D0D;" parent="1" vertex="1"><mxGeometry x="110" y="340" width="120" height="30" as="geometry"/></mxCell><mxCell id="380" value="" style="endArrow=none;html=1;rounded=0;dashed=1;strokeColor=#0D0D0D;strokeWidth=2;exitX=-0.001;exitY=0.532;exitDx=0;exitDy=0;exitPerimeter=0;" parent="1" source="379" edge="1"><mxGeometry width="50" height="50" relative="1" as="geometry"><mxPoint x="368.44" y="310" as="sourcePoint"/><mxPoint x="620" y="490" as="targetPoint"/></mxGeometry></mxCell><mxCell id="382" value="[errore]" style="text;html=1;strokeColor=none;fillColor=none;align=center;verticalAlign=middle;whiteSpace=wrap;rounded=0;labelBackgroundColor=none;strokeWidth=2;fontColor=#0D0D0D;" parent="1" vertex="1"><mxGeometry x="-180" y="524.5" width="70" as="geometry"/></mxCell><mxCell id="383" value="" style="endArrow=classic;html=1;rounded=0;dashed=1;strokeColor=#0D0D0D;strokeWidth=2;exitX=0.076;exitY=0.165;exitDx=0;exitDy=0;exitPerimeter=0;" parent="1" source="407" edge="1"><mxGeometry width="50" height="50" relative="1" as="geometry"><mxPoint x="85" y="510" as="sourcePoint"/><mxPoint x="-65" y="510" as="targetPoint"/></mxGeometry></mxCell><mxCell id="384" value="retry" style="text;html=1;strokeColor=none;fillColor=none;align=center;verticalAlign=middle;whiteSpace=wrap;rounded=0;labelBackgroundColor=none;strokeWidth=2;fontColor=#0D0D0D;" parent="1" vertex="1"><mxGeometry x="-30" y="509.5" width="60" height="30" as="geometry"/></mxCell><mxCell id="386" value="[richiesto login]" style="text;html=1;strokeColor=none;fillColor=none;align=center;verticalAlign=middle;whiteSpace=wrap;rounded=0;labelBackgroundColor=none;strokeWidth=2;fontColor=#0D0D0D;" parent="1" vertex="1"><mxGeometry x="-190" y="433" width="90" height="24" as="geometry"/></mxCell><mxCell id="398" value="" style="swimlane;startSize=0;labelBackgroundColor=none;strokeColor=#000000;strokeWidth=2;fontColor=#0D0D0D;fillColor=#FFFFFF;" parent="1" vertex="1"><mxGeometry x="75" y="400" width="10" height="60" as="geometry"/></mxCell><mxCell id="399" value="" style="swimlane;startSize=0;labelBackgroundColor=none;strokeColor=#000000;strokeWidth=2;fontColor=#0D0D0D;fillColor=#2A2A2A;" parent="1" vertex="1"><mxGeometry x="75" y="310" width="10" height="80" as="geometry"/></mxCell><mxCell id="401" value="" style="endArrow=none;dashed=1;html=1;rounded=0;exitX=0.5;exitY=0;exitDx=0;exitDy=0;strokeWidth=2;strokeColor=#000000;entryX=0.5;entryY=1;entryDx=0;entryDy=0;" parent="1" source="399" target="266" edge="1"><mxGeometry width="50" height="50" relative="1" as="geometry"><mxPoint x="-55.48000000000002" y="360" as="sourcePoint"/><mxPoint x="-55" y="180" as="targetPoint"/></mxGeometry></mxCell><mxCell id="402" value="" style="swimlane;startSize=0;labelBackgroundColor=none;strokeColor=#000000;strokeWidth=2;fontColor=#0D0D0D;fillColor=#2A2A2A;" parent="1" vertex="1"><mxGeometry x="-70" y="170" width="10" height="80" as="geometry"/></mxCell><mxCell id="403" value="" style="swimlane;startSize=0;labelBackgroundColor=none;strokeColor=#000000;strokeWidth=2;fontColor=#0D0D0D;fillColor=#2A2A2A;" parent="1" vertex="1"><mxGeometry x="-70" y="310" width="10" height="44" as="geometry"/></mxCell><mxCell id="404" value="" style="endArrow=none;dashed=1;html=1;rounded=0;exitX=0.5;exitY=0;exitDx=0;exitDy=0;strokeWidth=2;strokeColor=#000000;entryX=0.5;entryY=1;entryDx=0;entryDy=0;" parent="1" edge="1"><mxGeometry width="50" height="50" relative="1" as="geometry"><mxPoint x="-65.34" y="309" as="sourcePoint"/><mxPoint x="-65.34" y="249" as="targetPoint"/></mxGeometry></mxCell><mxCell id="406" value="" style="endArrow=none;dashed=1;html=1;rounded=0;entryX=0.5;entryY=1;entryDx=0;entryDy=0;strokeWidth=2;strokeColor=#000000;" parent="1" target="398" edge="1"><mxGeometry width="50" height="50" relative="1" as="geometry"><mxPoint x="80" y="500" as="sourcePoint"/><mxPoint x="-55" y="364" as="targetPoint"/></mxGeometry></mxCell><mxCell id="407" value="" style="swimlane;startSize=0;labelBackgroundColor=none;strokeColor=#000000;strokeWidth=2;fontColor=#0D0D0D;fillColor=#FFFFFF;" parent="1" vertex="1"><mxGeometry x="75" y="500" width="10" height="60" as="geometry"/></mxCell><mxCell id="417" value="" style="endArrow=none;dashed=1;html=1;rounded=0;entryX=0.5;entryY=1;entryDx=0;entryDy=0;strokeWidth=2;strokeColor=#000000;startArrow=none;exitX=0.5;exitY=0;exitDx=0;exitDy=0;" parent="1" source="436" edge="1"><mxGeometry width="50" height="50" relative="1" as="geometry"><mxPoint x="80" y="960" as="sourcePoint"/><mxPoint x="79.7199999999998" y="560" as="targetPoint"/></mxGeometry></mxCell><mxCell id="422" value="" style="edgeStyle=orthogonalEdgeStyle;rounded=0;orthogonalLoop=1;jettySize=auto;html=1;strokeColor=#0D0D0D;endArrow=none;endFill=0;dashed=1;strokeWidth=2;startArrow=none;" parent="1" source="298" edge="1"><mxGeometry relative="1" as="geometry"><mxPoint x="530" y="250" as="sourcePoint"/><mxPoint x="530" y="389" as="targetPoint"/></mxGeometry></mxCell><mxCell id="427" value="" style="endArrow=classic;html=1;rounded=0;strokeColor=#191919;strokeWidth=2;fontColor=#0D0D0D;exitX=1.133;exitY=0.391;exitDx=0;exitDy=0;exitPerimeter=0;entryX=1.229;entryY=0.999;entryDx=0;entryDy=0;entryPerimeter=0;" parent="1" edge="1"><mxGeometry width="50" height="50" relative="1" as="geometry"><mxPoint x="234.99999999999994" y="950" as="sourcePoint"/><mxPoint x="237.28999999999996" y="969.98" as="targetPoint"/><Array as="points"><mxPoint x="270" y="950.26"/><mxPoint x="270" y="970.26"/></Array></mxGeometry></mxCell><mxCell id="428" value="" style="endArrow=none;html=1;rounded=0;fontColor=#0D0D0D;strokeColor=#191919;strokeWidth=2;dashed=1;" parent="1" edge="1"><mxGeometry width="50" height="50" relative="1" as="geometry"><mxPoint x="380" y="1000" as="sourcePoint"/><mxPoint x="380" y="650" as="targetPoint"/><Array as="points"/></mxGeometry></mxCell><mxCell id="430" value="" style="swimlane;startSize=0;strokeColor=#000000;fontColor=#0D0D0D;fillColor=#2A2A2A;strokeWidth=2;" parent="1" vertex="1"><mxGeometry x="630" y="60" width="100" height="60" as="geometry"/></mxCell><mxCell id="431" value="RegistroModel" style="text;html=1;align=center;verticalAlign=middle;resizable=0;points=[];autosize=1;strokeColor=none;fillColor=none;fontColor=#0D0D0D;" parent="430" vertex="1"><mxGeometry y="15" width="100" height="30" as="geometry"/></mxCell><mxCell id="436" value="" style="swimlane;startSize=0;labelBackgroundColor=none;strokeColor=#000000;strokeWidth=2;fontColor=#0D0D0D;fillColor=#FFFFFF;" parent="1" vertex="1"><mxGeometry x="75" y="600" width="10" height="60" as="geometry"/></mxCell><mxCell id="437" value="" style="endArrow=classic;html=1;rounded=0;strokeColor=#0D0D0D;strokeWidth=2;" parent="1" edge="1"><mxGeometry width="50" height="50" relative="1" as="geometry"><mxPoint x="85" y="409" as="sourcePoint"/><mxPoint x="380" y="410" as="targetPoint"/></mxGeometry></mxCell><mxCell id="438" value="load" style="text;html=1;strokeColor=none;fillColor=none;align=center;verticalAlign=middle;whiteSpace=wrap;rounded=0;labelBackgroundColor=none;strokeWidth=2;fontColor=#0D0D0D;" parent="1" vertex="1"><mxGeometry x="245" y="409" width="90" height="24" as="geometry"/></mxCell><mxCell id="439" value="" style="swimlane;startSize=0;labelBackgroundColor=none;strokeColor=#000000;strokeWidth=2;fontColor=#0D0D0D;fillColor=#2A2A2A;" parent="1" vertex="1"><mxGeometry x="375" y="400" width="10" height="80" as="geometry"/></mxCell><mxCell id="440" value="" style="endArrow=none;html=1;rounded=0;fontColor=#0D0D0D;strokeColor=#191919;strokeWidth=2;dashed=1;entryX=0.5;entryY=1;entryDx=0;entryDy=0;" parent="1" target="439" edge="1"><mxGeometry width="50" height="50" relative="1" as="geometry"><mxPoint x="380" y="650" as="sourcePoint"/><mxPoint x="380" y="120" as="targetPoint"/></mxGeometry></mxCell><mxCell id="441" value="redirect" style="text;html=1;strokeColor=none;fillColor=none;align=center;verticalAlign=middle;whiteSpace=wrap;rounded=0;labelBackgroundColor=none;strokeWidth=2;fontColor=#0D0D0D;" parent="1" vertex="1"><mxGeometry x="420" y="448" width="70" height="12" as="geometry"/></mxCell><mxCell id="443" value="" style="swimlane;startSize=0;labelBackgroundColor=none;strokeColor=#000000;strokeWidth=2;fontColor=#0D0D0D;fillColor=#2A2A2A;" parent="1" vertex="1"><mxGeometry x="-70" y="499" width="10" height="51" as="geometry"/></mxCell><mxCell id="444" value="" style="endArrow=none;dashed=1;html=1;rounded=0;entryX=0.5;entryY=1;entryDx=0;entryDy=0;strokeWidth=2;strokeColor=#000000;startArrow=none;" parent="1" source="458" edge="1"><mxGeometry width="50" height="50" relative="1" as="geometry"><mxPoint x="-65.24999999999997" y="691" as="sourcePoint"/><mxPoint x="-64.97" y="550" as="targetPoint"/></mxGeometry></mxCell><mxCell id="446" value="" style="endArrow=classic;html=1;rounded=0;strokeColor=#0D0D0D;strokeWidth=2;exitX=0.985;exitY=0.157;exitDx=0;exitDy=0;exitPerimeter=0;" parent="1" source="436" edge="1"><mxGeometry width="50" height="50" relative="1" as="geometry"><mxPoint x="82.5" y="610" as="sourcePoint"/><mxPoint x="683.2941750919117" y="611" as="targetPoint"/></mxGeometry></mxCell><mxCell id="447" value="" style="edgeStyle=orthogonalEdgeStyle;rounded=0;orthogonalLoop=1;jettySize=auto;html=1;strokeColor=#0D0D0D;endArrow=none;endFill=0;dashed=1;strokeWidth=2;startArrow=none;exitX=0.493;exitY=1.022;exitDx=0;exitDy=0;exitPerimeter=0;" parent="1" source="430" edge="1"><mxGeometry relative="1" as="geometry"><mxPoint x="700.44" y="120" as="sourcePoint"/><mxPoint x="680" y="1010" as="targetPoint"/><Array as="points"><mxPoint x="679" y="130"/><mxPoint x="680" y="130"/><mxPoint x="680" y="1010"/></Array></mxGeometry></mxCell><mxCell id="448" value="setCurrentPreventivo" style="text;html=1;strokeColor=none;fillColor=none;align=center;verticalAlign=middle;whiteSpace=wrap;rounded=0;labelBackgroundColor=none;strokeWidth=2;fontColor=#0D0D0D;" parent="1" vertex="1"><mxGeometry x="100" y="580" width="120" height="30" as="geometry"/></mxCell><mxCell id="449" value="" style="swimlane;startSize=0;strokeColor=#000000;fontColor=#0D0D0D;fillColor=#2A2A2A;strokeWidth=2;" parent="1" vertex="1"><mxGeometry x="800" y="600" width="100" height="60" as="geometry"/></mxCell><mxCell id="450" value="Preventivo" style="text;html=1;align=center;verticalAlign=middle;resizable=0;points=[];autosize=1;strokeColor=none;fillColor=none;fontColor=#0D0D0D;" parent="449" vertex="1"><mxGeometry x="10" y="15" width="80" height="30" as="geometry"/></mxCell><mxCell id="451" value="" style="endArrow=classic;html=1;rounded=0;strokeColor=#0D0D0D;strokeWidth=2;entryX=0;entryY=0.5;entryDx=0;entryDy=0;" parent="1" target="449" edge="1"><mxGeometry width="50" height="50" relative="1" as="geometry"><mxPoint x="680" y="630" as="sourcePoint"/><mxPoint x="693.2941750919117" y="621" as="targetPoint"/></mxGeometry></mxCell><mxCell id="452" value="create" style="text;html=1;strokeColor=none;fillColor=none;align=center;verticalAlign=middle;whiteSpace=wrap;rounded=0;labelBackgroundColor=none;strokeWidth=2;fontColor=#0D0D0D;" parent="1" vertex="1"><mxGeometry x="690" y="600" width="90" height="24" as="geometry"/></mxCell><mxCell id="454" value="" style="endArrow=classic;html=1;rounded=0;strokeColor=#0D0D0D;strokeWidth=2;entryX=0;entryY=0.75;entryDx=0;entryDy=0;" parent="1" target="456" edge="1"><mxGeometry width="50" height="50" relative="1" as="geometry"><mxPoint x="85" y="640" as="sourcePoint"/><mxPoint x="230" y="640" as="targetPoint"/></mxGeometry></mxCell><mxCell id="455" value="load" style="text;html=1;strokeColor=none;fillColor=none;align=center;verticalAlign=middle;whiteSpace=wrap;rounded=0;labelBackgroundColor=none;strokeWidth=2;fontColor=#0D0D0D;" parent="1" vertex="1"><mxGeometry x="120" y="645" width="80" height="10" as="geometry"/></mxCell><mxCell id="456" value="" style="swimlane;startSize=0;labelBackgroundColor=none;strokeColor=#000000;strokeWidth=2;fontColor=#0D0D0D;fillColor=#2A2A2A;" parent="1" vertex="1"><mxGeometry x="225" y="610" width="10" height="40" as="geometry"/></mxCell><mxCell id="458" value="" style="swimlane;startSize=0;labelBackgroundColor=none;strokeColor=#000000;strokeWidth=2;fontColor=#0D0D0D;fillColor=#2A2A2A;" parent="1" vertex="1"><mxGeometry x="-70" y="670" width="10" height="80" as="geometry"/></mxCell><mxCell id="460" value="" style="endArrow=classic;html=1;rounded=0;strokeColor=#0D0D0D;strokeWidth=2;entryX=-0.146;entryY=0.173;entryDx=0;entryDy=0;entryPerimeter=0;" parent="1" target="464" edge="1"><mxGeometry width="50" height="50" relative="1" as="geometry"><mxPoint x="-60" y="680" as="sourcePoint"/><mxPoint x="80.51999999999998" y="680.0799999999999" as="targetPoint"/></mxGeometry></mxCell><mxCell id="462" value="" style="endArrow=none;html=1;rounded=0;dashed=1;strokeColor=#0D0D0D;strokeWidth=2;exitX=-0.001;exitY=0.532;exitDx=0;exitDy=0;exitPerimeter=0;entryX=1.005;entryY=0.406;entryDx=0;entryDy=0;entryPerimeter=0;" parent="1" target="461" edge="1"><mxGeometry width="50" height="50" relative="1" as="geometry"><mxPoint x="-200.00000000000014" y="761.0799999999999" as="sourcePoint"/><mxPoint x="640.84" y="760" as="targetPoint"/></mxGeometry></mxCell><mxCell id="463" value="[salta]" style="text;html=1;strokeColor=none;fillColor=none;align=center;verticalAlign=middle;whiteSpace=wrap;rounded=0;labelBackgroundColor=none;strokeWidth=2;fontColor=#0D0D0D;" parent="1" vertex="1"><mxGeometry x="-170" y="710" width="70" as="geometry"/></mxCell><mxCell id="464" value="" style="swimlane;startSize=0;labelBackgroundColor=none;strokeColor=#000000;strokeWidth=2;fontColor=#0D0D0D;fillColor=#2A2A2A;" parent="1" vertex="1"><mxGeometry x="225" y="670" width="10" height="60" as="geometry"/></mxCell><mxCell id="465" value="" style="endArrow=none;dashed=1;html=1;rounded=0;entryX=0.5;entryY=1;entryDx=0;entryDy=0;strokeWidth=2;strokeColor=#000000;startArrow=none;" parent="1" edge="1"><mxGeometry width="50" height="50" relative="1" as="geometry"><mxPoint x="229" y="670" as="sourcePoint"/><mxPoint x="229.3799999999998" y="650" as="targetPoint"/></mxGeometry></mxCell><mxCell id="466" value="salta" style="text;html=1;strokeColor=none;fillColor=none;align=center;verticalAlign=middle;whiteSpace=wrap;rounded=0;labelBackgroundColor=none;strokeWidth=2;fontColor=#0D0D0D;" parent="1" vertex="1"><mxGeometry x="5" y="690" width="80" height="10" as="geometry"/></mxCell><mxCell id="469" value="" style="endArrow=classic;html=1;rounded=0;strokeColor=#0D0D0D;strokeWidth=2;entryX=-0.109;entryY=0.181;entryDx=0;entryDy=0;entryPerimeter=0;" parent="1" target="475" edge="1"><mxGeometry width="50" height="50" relative="1" as="geometry"><mxPoint x="-60" y="800.28" as="sourcePoint"/><mxPoint x="231" y="799.9999999999999" as="targetPoint"/></mxGeometry></mxCell><mxCell id="470" value="" style="endArrow=none;dashed=1;html=1;rounded=0;entryX=0.5;entryY=1;entryDx=0;entryDy=0;strokeWidth=2;strokeColor=#000000;startArrow=none;" parent="1" edge="1"><mxGeometry width="50" height="50" relative="1" as="geometry"><mxPoint x="-65" y="790" as="sourcePoint"/><mxPoint x="-65.23000000000003" y="750" as="targetPoint"/></mxGeometry></mxCell><mxCell id="471" value="" style="endArrow=none;dashed=1;html=1;rounded=0;entryX=0.5;entryY=1;entryDx=0;entryDy=0;strokeWidth=2;strokeColor=#000000;startArrow=none;" parent="1" edge="1"><mxGeometry width="50" height="50" relative="1" as="geometry"><mxPoint x="80" y="1000" as="sourcePoint"/><mxPoint x="79.76999999999998" y="655" as="targetPoint"/></mxGeometry></mxCell><mxCell id="472" value="" style="swimlane;startSize=0;labelBackgroundColor=none;strokeColor=#000000;strokeWidth=2;fontColor=#0D0D0D;fillColor=#2A2A2A;" parent="1" vertex="1"><mxGeometry x="-70" y="790" width="10" height="40" as="geometry"/></mxCell><mxCell id="473" value="[inserisci auto usata]" style="text;html=1;strokeColor=none;fillColor=none;align=center;verticalAlign=middle;whiteSpace=wrap;rounded=0;labelBackgroundColor=none;strokeWidth=2;fontColor=#0D0D0D;" parent="1" vertex="1"><mxGeometry x="-170" y="790" width="70" as="geometry"/></mxCell><mxCell id="474" value="" style="endArrow=none;dashed=1;html=1;rounded=0;entryX=0.5;entryY=1;entryDx=0;entryDy=0;strokeWidth=2;strokeColor=#000000;startArrow=none;exitX=0.5;exitY=0;exitDx=0;exitDy=0;" parent="1" source="475" edge="1"><mxGeometry width="50" height="50" relative="1" as="geometry"><mxPoint x="229.48750000000007" y="850" as="sourcePoint"/><mxPoint x="229.51" y="730" as="targetPoint"/></mxGeometry></mxCell><mxCell id="475" value="" style="swimlane;startSize=0;labelBackgroundColor=none;strokeColor=#000000;strokeWidth=2;fontColor=#0D0D0D;fillColor=#2A2A2A;" parent="1" vertex="1"><mxGeometry x="225" y="780" width="10" height="110" as="geometry"/></mxCell><mxCell id="476" value="" style="endArrow=classic;html=1;rounded=0;strokeColor=#191919;strokeWidth=2;fontColor=#0D0D0D;exitX=1.133;exitY=0.391;exitDx=0;exitDy=0;exitPerimeter=0;entryX=1.229;entryY=0.999;entryDx=0;entryDy=0;entryPerimeter=0;" parent="1" edge="1"><mxGeometry width="50" height="50" relative="1" as="geometry"><mxPoint x="385" y="439.7399999999999" as="sourcePoint"/><mxPoint x="387.28999999999996" y="459.7199999999999" as="targetPoint"/><Array as="points"><mxPoint x="410" y="439.87"/><mxPoint x="420" y="440"/><mxPoint x="420" y="460"/></Array></mxGeometry></mxCell><mxCell id="477" value="" style="endArrow=classic;html=1;rounded=0;strokeColor=#0D0D0D;strokeWidth=2;" parent="1" edge="1"><mxGeometry width="50" height="50" relative="1" as="geometry"><mxPoint x="235" y="799.9999999999999" as="sourcePoint"/><mxPoint x="680" y="800" as="targetPoint"/></mxGeometry></mxCell><mxCell id="478" value="inserisci" style="text;html=1;strokeColor=none;fillColor=none;align=center;verticalAlign=middle;whiteSpace=wrap;rounded=0;labelBackgroundColor=none;strokeWidth=2;fontColor=#0D0D0D;" parent="1" vertex="1"><mxGeometry x="-30" y="810" width="80" height="10" as="geometry"/></mxCell><mxCell id="479" value="validation" style="text;html=1;strokeColor=none;fillColor=none;align=center;verticalAlign=middle;whiteSpace=wrap;rounded=0;labelBackgroundColor=none;strokeWidth=2;fontColor=#0D0D0D;" parent="1" vertex="1"><mxGeometry x="265" y="830" width="80" height="10" as="geometry"/></mxCell><mxCell id="480" value="isValidTarga" style="text;html=1;strokeColor=none;fillColor=none;align=center;verticalAlign=middle;whiteSpace=wrap;rounded=0;labelBackgroundColor=none;strokeWidth=2;fontColor=#0D0D0D;" parent="1" vertex="1"><mxGeometry x="290" y="785" width="80" height="10" as="geometry"/></mxCell><mxCell id="481" value="" style="endArrow=classic;html=1;rounded=0;dashed=1;strokeColor=#0D0D0D;strokeWidth=2;" parent="1" edge="1"><mxGeometry width="50" height="50" relative="1" as="geometry"><mxPoint x="680" y="810" as="sourcePoint"/><mxPoint x="235" y="810.1" as="targetPoint"/></mxGeometry></mxCell><mxCell id="482" value="return isValidTarga" style="text;html=1;strokeColor=none;fillColor=none;align=center;verticalAlign=middle;whiteSpace=wrap;rounded=0;labelBackgroundColor=none;strokeWidth=2;fontColor=#0D0D0D;" parent="1" vertex="1"><mxGeometry x="390" y="820" width="130" height="10" as="geometry"/></mxCell><mxCell id="483" value="" style="endArrow=classic;html=1;rounded=0;strokeColor=#0D0D0D;strokeWidth=2;" parent="1" edge="1"><mxGeometry width="50" height="50" relative="1" as="geometry"><mxPoint x="235" y="860" as="sourcePoint"/><mxPoint x="850" y="860" as="targetPoint"/></mxGeometry></mxCell><mxCell id="484" value="setAutoUsata" style="text;html=1;strokeColor=none;fillColor=none;align=center;verticalAlign=middle;whiteSpace=wrap;rounded=0;labelBackgroundColor=none;strokeWidth=2;fontColor=#0D0D0D;" parent="1" vertex="1"><mxGeometry x="360" y="870" width="130" height="10" as="geometry"/></mxCell><mxCell id="486" value="" style="endArrow=none;dashed=1;html=1;rounded=0;entryX=0.5;entryY=1;entryDx=0;entryDy=0;strokeWidth=2;strokeColor=#000000;startArrow=none;" parent="1" edge="1"><mxGeometry width="50" height="50" relative="1" as="geometry"><mxPoint x="-65" y="1000" as="sourcePoint"/><mxPoint x="-65.43" y="830" as="targetPoint"/></mxGeometry></mxCell><mxCell id="487" value="" style="endArrow=classic;html=1;rounded=0;strokeColor=#0D0D0D;strokeWidth=2;" parent="1" edge="1"><mxGeometry width="50" height="50" relative="1" as="geometry"><mxPoint x="240" y="930" as="sourcePoint"/><mxPoint x="680" y="930" as="targetPoint"/></mxGeometry></mxCell><mxCell id="488" value="" style="swimlane;startSize=0;labelBackgroundColor=none;strokeColor=#000000;strokeWidth=2;fontColor=#0D0D0D;fillColor=#2A2A2A;" parent="1" vertex="1"><mxGeometry x="225" y="920" width="10" height="60" as="geometry"/></mxCell><mxCell id="489" value="saveCurrentPreventivo" style="text;html=1;strokeColor=none;fillColor=none;align=center;verticalAlign=middle;whiteSpace=wrap;rounded=0;labelBackgroundColor=none;strokeWidth=2;fontColor=#0D0D0D;" parent="1" vertex="1"><mxGeometry x="385" y="940" width="130" height="10" as="geometry"/></mxCell><mxCell id="492" value="" style="endArrow=classic;html=1;rounded=0;strokeColor=#191919;strokeWidth=2;fontColor=#0D0D0D;exitX=1.133;exitY=0.391;exitDx=0;exitDy=0;exitPerimeter=0;entryX=1.229;entryY=0.999;entryDx=0;entryDy=0;entryPerimeter=0;" parent="1" edge="1"><mxGeometry width="50" height="50" relative="1" as="geometry"><mxPoint x="235" y="824.87" as="sourcePoint"/><mxPoint x="237.28999999999996" y="844.85" as="targetPoint"/><Array as="points"><mxPoint x="270" y="825.13"/><mxPoint x="270" y="845.13"/></Array></mxGeometry></mxCell><mxCell id="493" value="redirect catalogo" style="text;html=1;strokeColor=none;fillColor=none;align=center;verticalAlign=middle;whiteSpace=wrap;rounded=0;labelBackgroundColor=none;strokeWidth=2;fontColor=#0D0D0D;" parent="1" vertex="1"><mxGeometry x="275" y="960" width="95" height="10" as="geometry"/></mxCell><mxCell id="494" value="" style="endArrow=none;dashed=1;html=1;rounded=0;strokeWidth=2;strokeColor=#000000;startArrow=none;exitX=0.5;exitY=1;exitDx=0;exitDy=0;entryX=0.5;entryY=0;entryDx=0;entryDy=0;" parent="1" source="475" target="488" edge="1"><mxGeometry width="50" height="50" relative="1" as="geometry"><mxPoint x="240" y="790" as="sourcePoint"/><mxPoint x="200" y="940" as="targetPoint"/></mxGeometry></mxCell><mxCell id="496" value="" style="endArrow=none;dashed=1;html=1;rounded=0;strokeWidth=2;strokeColor=#000000;startArrow=none;entryX=0.5;entryY=1;entryDx=0;entryDy=0;" parent="1" target="488" edge="1"><mxGeometry width="50" height="50" relative="1" as="geometry"><mxPoint x="230" y="1000" as="sourcePoint"/><mxPoint x="240" y="930" as="targetPoint"/></mxGeometry></mxCell><mxCell id="497" value="" style="endArrow=none;dashed=1;html=1;rounded=0;strokeWidth=2;strokeColor=#000000;startArrow=none;entryX=0.5;entryY=1;entryDx=0;entryDy=0;" parent="1" target="449" edge="1"><mxGeometry width="50" height="50" relative="1" as="geometry"><mxPoint x="850" y="1000" as="sourcePoint"/><mxPoint x="240" y="990" as="targetPoint"/><Array as="points"/></mxGeometry></mxCell><mxCell id="500" value="" style="endArrow=classic;html=1;rounded=0;strokeColor=#0D0D0D;strokeWidth=2;" edge="1" parent="1"><mxGeometry width="50" height="50" relative="1" as="geometry"><mxPoint x="235" y="690" as="sourcePoint"/><mxPoint x="850" y="690" as="targetPoint"/></mxGeometry></mxCell><mxCell id="501" value="setAutoUsata(null)" style="text;html=1;strokeColor=none;fillColor=none;align=center;verticalAlign=middle;whiteSpace=wrap;rounded=0;labelBackgroundColor=none;strokeWidth=2;fontColor=#0D0D0D;" vertex="1" parent="1"><mxGeometry x="375" y="700" width="130" height="10" as="geometry"/></mxCell></root></mxGraphModel></diagram></mxfile>